<svg width="19" height="19" viewBox="0 0 19 19" fill="none" xmlns="http://www.w3.org/2000/svg">
<path d="M16.2784 13.9745H16.2974C16.5207 13.9745 16.7249 13.851 16.8342 13.6515C17.5039 12.407 17.8792 10.982 17.8792 9.46676C17.8792 7.98476 17.5134 6.58351 16.8722 5.35326C16.7677 5.15376 16.5587 5.02551 16.3354 5.02551H16.2689C15.8129 5.02551 15.5184 5.51001 15.7322 5.91376C16.3069 6.98726 16.6299 8.20801 16.6299 9.50951C16.6299 10.8015 16.3069 12.0175 15.7417 13.0815C15.5279 13.49 15.8224 13.9745 16.2784 13.9745Z" fill="#2D2D2D"/>
<path d="M2.70284 13.9745C3.15884 13.9745 3.45334 13.49 3.23959 13.091C2.67434 12.027 2.35134 10.8063 2.35134 9.51903C2.35134 8.21753 2.67909 6.99203 3.24909 5.92328C3.46284 5.51953 3.16834 5.03503 2.71234 5.03503H2.66484C2.43684 5.03503 2.23259 5.16328 2.12809 5.36278C1.48209 6.59303 1.12109 7.98953 1.12109 9.47628C1.12109 10.9868 1.50109 12.4118 2.16609 13.661C2.27534 13.851 2.47959 13.9745 2.70284 13.9745Z" fill="#2D2D2D"/>
<path d="M7.00635 10.032H7.3056L7.1536 8.77795L7.00635 10.032Z" fill="#2D2D2D"/>
<path d="M9.52402 9.67102H9.40527V10.6115H9.51927C9.82327 10.6115 9.92777 10.4548 9.92777 10.1555C9.92777 9.79452 9.83277 9.67102 9.52402 9.67102Z" fill="#2D2D2D"/>
<path d="M9.89452 8.73048C9.89452 8.52148 9.76152 8.35522 9.54302 8.35522H9.40527V9.14372H9.51452C9.83752 9.14372 9.89452 8.97748 9.89452 8.73048Z" fill="#2D2D2D"/>
<path d="M9.50024 3.34399C6.09924 3.34399 3.34424 6.09899 3.34424 9.49999C3.34424 12.901 6.09924 15.656 9.50024 15.656C12.9012 15.656 15.6562 12.901 15.6562 9.49999C15.6562 6.09899 12.8965 3.34399 9.50024 3.34399ZM7.48149 11.1862L7.37699 10.5117H6.93524L6.83074 11.1862H6.05174L6.66449 7.80424H7.62874L8.23199 11.1862H7.48149ZM9.65699 11.191H8.57399L8.57874 7.80424H9.50024C10.0702 7.80424 10.6212 7.89924 10.6212 8.70199C10.6212 9.10574 10.4265 9.30999 10.1225 9.37174C10.512 9.40974 10.7257 9.69949 10.7257 10.1745C10.7257 10.9155 10.322 11.191 9.65699 11.191ZM12.0415 11.2432C11.3907 11.2432 11.0725 10.9487 11.0487 10.146L11.7517 10.0557C11.7565 10.5165 11.861 10.621 11.994 10.621C12.1222 10.621 12.1317 10.4975 12.1317 10.4215C12.1317 10.146 11.994 9.97974 11.7565 9.78024L11.5427 9.59499C11.2767 9.37174 11.0487 9.10099 11.0487 8.67349C11.0487 8.07974 11.4335 7.75674 12.0415 7.75674C12.8205 7.75674 12.8775 8.40274 12.8822 8.73999L12.165 8.81124C12.165 8.51674 12.1602 8.35049 12.013 8.35049C11.899 8.35049 11.8562 8.50724 11.8562 8.58324C11.8562 8.84449 12.0082 8.98224 12.2172 9.16749L12.412 9.33849C12.7112 9.59974 12.9487 9.89424 12.9487 10.374C12.944 10.8442 12.5972 11.2432 12.0415 11.2432Z" fill="#2D2D2D"/>
</svg>
