<svg width="15" height="15" viewBox="0 0 15 15" fill="none" xmlns="http://www.w3.org/2000/svg">
<path d="M5.61328 13.793C5.55469 13.793 5.51953 13.7812 5.47266 13.7578C5.26172 13.6172 4.26562 12.8789 5.09766 11.4141C5.32031 11.0156 5.37891 10.6992 5.29688 10.4414C5.20312 10.1484 4.89844 10.0312 4.89844 10.0312C4.75781 9.97265 4.6875 9.80859 4.74609 9.66797C4.79297 9.55078 4.88672 9.48047 5.00391 9.48047C5.03906 9.48047 5.07422 9.49219 5.10938 9.50391C5.15625 9.50391 5.64844 9.71484 5.84766 10.2422C6 10.6641 5.91797 11.1562 5.60156 11.707C5.01562 12.7383 5.63672 13.1953 5.76562 13.2773C5.89453 13.3477 5.94141 13.5234 5.87109 13.6641C5.80078 13.7578 5.69531 13.793 5.61328 13.793ZM7.51172 13.1719C7.45312 13.1719 7.41797 13.1602 7.37109 13.1367C6.94922 12.8906 6.35156 12.1289 7.01953 10.9336C7.21875 10.5703 7.27734 10.2773 7.19531 10.0547C7.11328 9.79687 6.84375 9.6914 6.84375 9.6914C6.69141 9.63281 6.62109 9.48047 6.67969 9.32812C6.72656 9.21094 6.82031 9.14062 6.9375 9.14062C6.97266 9.14062 7.00781 9.15234 7.04297 9.16406C7.16016 9.21094 7.57031 9.39844 7.73438 9.86719C7.875 10.2656 7.80469 10.7227 7.51172 11.2266C6.94922 12.2344 7.62891 12.6445 7.66406 12.6562C7.72266 12.6914 7.76953 12.75 7.79297 12.8203C7.81641 12.8906 7.80469 12.9727 7.76953 13.043C7.69922 13.1367 7.59375 13.1719 7.51172 13.1719ZM3.62109 13.1719C3.5625 13.1719 3.52734 13.1602 3.48047 13.1367C3.05859 12.8906 2.46094 12.1289 3.12891 10.9336C3.32813 10.5703 3.38672 10.2773 3.30469 10.0547C3.22266 9.79687 2.95313 9.6914 2.95313 9.6914C2.80078 9.63281 2.73047 9.48047 2.78906 9.32812C2.83594 9.21094 2.92969 9.14062 3.04688 9.14062C3.08203 9.14062 3.11719 9.15234 3.15234 9.16406C3.26953 9.21094 3.67969 9.41015 3.84375 9.86719C3.98438 10.2656 3.90234 10.7227 3.62109 11.2383C3.05859 12.2461 3.73828 12.6562 3.77344 12.668C3.83203 12.7031 3.87891 12.7617 3.90234 12.832C3.92578 12.9023 3.91406 12.9844 3.87891 13.0547C3.82031 13.1367 3.70312 13.1719 3.62109 13.1719ZM10.7578 12.1289C10.6641 12.1289 10.5938 12.0937 10.5352 12.0352C10.4766 11.9766 10.4414 11.8945 10.4414 11.8125C10.4414 11.6836 10.5234 11.5664 10.6406 11.5078H10.6523V10.875L10.0547 11.2148V11.2266C10.0547 11.3203 10.0195 11.4375 9.90234 11.4961C9.85547 11.5312 9.79687 11.543 9.73828 11.543C9.62109 11.543 9.51562 11.4844 9.46875 11.3906C9.42188 11.3086 9.41016 11.2266 9.43359 11.1445C9.45703 11.0625 9.50391 10.9922 9.58594 10.957C9.63281 10.9219 9.69141 10.9102 9.73828 10.9102C9.79687 10.9102 9.85547 10.9219 9.90234 10.957L10.4414 10.6523L9.91406 10.3477C9.84375 10.3711 9.78516 10.3828 9.73828 10.3828C9.67969 10.3828 9.63281 10.3711 9.58594 10.3477C9.44531 10.2539 9.38672 10.0547 9.46875 9.91406C9.52734 9.82031 9.63281 9.76172 9.75 9.76172C9.80859 9.76172 9.86719 9.77344 9.91406 9.80859C10.0078 9.86719 10.0664 9.96094 10.0664 10.0781V10.0898L10.6641 10.4297V9.79687H10.6523C10.5352 9.73828 10.4531 9.62109 10.4531 9.49219C10.4531 9.31641 10.5938 9.17578 10.7695 9.17578C10.8633 9.17578 10.9453 9.21094 11.0039 9.26953C11.0625 9.32812 11.0977 9.41016 11.0977 9.49219C11.0977 9.59766 11.0391 9.70312 10.9336 9.76172H10.8984V10.3711L11.4141 10.0781V10.0664C11.4141 9.97266 11.4492 9.85547 11.5664 9.79687C11.6133 9.76172 11.6719 9.75 11.7305 9.75C11.8477 9.75 11.9531 9.80859 12 9.90234C12.0469 9.98437 12.0586 10.0664 12.0352 10.1484C12.0117 10.2305 11.9648 10.3008 11.8828 10.3359C11.8359 10.3711 11.7773 10.3828 11.7305 10.3828C11.6719 10.3828 11.6133 10.3711 11.5664 10.3359L11.0273 10.6406L11.5547 10.9453C11.625 10.9219 11.6836 10.9102 11.7305 10.9102C11.7891 10.9102 11.8359 10.9219 11.8828 10.9453C12.0234 11.0391 12.082 11.2383 12 11.3789C11.9414 11.4727 11.8359 11.5312 11.7188 11.5312C11.6602 11.5312 11.6016 11.5195 11.5547 11.4844C11.4609 11.4258 11.4023 11.332 11.4023 11.2148V11.2031L10.8984 10.9219V11.5312H10.9102C11.0156 11.5781 11.0742 11.6836 11.0742 11.8008C11.0742 11.9883 10.9336 12.1289 10.7578 12.1289ZM2.22656 8.42578C1.33594 8.42578 0.621094 7.71094 0.621094 6.82031V3C0.621094 2.10938 1.33594 1.39453 2.22656 1.39453H12.7969C13.6875 1.39453 14.4023 2.10938 14.4023 3V6.82031C14.4023 7.71094 13.6875 8.42578 12.7969 8.42578H2.22656ZM2.0625 2.09766C1.64062 2.09766 1.30078 2.44922 1.30078 2.89453V6.97266C1.30078 7.40625 1.64062 7.76953 2.0625 7.76953H12.9492C13.3711 7.76953 13.7109 7.41797 13.7109 6.97266V2.89453C13.7109 2.46094 13.3711 2.09766 12.9492 2.09766H2.0625ZM2.37891 6.66797C2.22656 6.66797 2.09766 6.53906 2.09766 6.38672C2.09766 6.23437 2.22656 6.10547 2.37891 6.10547H12.375C12.5273 6.10547 12.6562 6.23437 12.6562 6.38672C12.6562 6.53906 12.5273 6.66797 12.375 6.66797H2.37891ZM2.37891 5.48437C2.22656 5.48437 2.09766 5.35547 2.09766 5.20312C2.09766 5.05078 2.22656 4.92187 2.37891 4.92187H12.375C12.5273 4.92187 12.6562 5.05078 12.6562 5.20312C12.6562 5.35547 12.5273 5.48437 12.375 5.48437H2.37891Z" fill="#2D2D2D"/>
</svg>
