<svg width="17" height="17" viewBox="0 0 17 17" fill="none" xmlns="http://www.w3.org/2000/svg">
<path d="M13.4983 13.719C12.5803 11.3092 10.0643 11.679 10.0643 11.679L5.51257 12.7032H5.47007C4.71782 12.2102 3.33232 12.529 3.28982 13.6552C3.24732 14.7857 4.30982 15.011 4.30982 15.011C4.63282 15.8822 5.41907 15.9247 5.41907 15.9247H12.3041C14.0083 15.6995 13.4983 13.719 13.4983 13.719ZM4.67107 14.212C4.41182 14.212 4.19932 14.0165 4.19932 13.7742C4.19932 13.532 4.41182 13.3365 4.67107 13.3365C4.93032 13.3365 5.14282 13.532 5.14282 13.7742C5.14282 14.0165 4.93032 14.212 4.67107 14.212Z" fill="#2D2D2D"/>
<path d="M3.17915 12.1167C3.17915 12.1167 4.1439 11.2327 5.5804 11.7895L6.91065 11.4622L5.66115 7.29723C5.66115 7.29723 5.3084 6.27298 4.27565 5.94148C4.27565 5.94148 5.0194 5.19348 4.7729 4.15648C4.5264 3.11948 4.27565 1.18998 2.04865 1.15173C2.04865 1.15173 0.221148 1.22398 0.522898 2.89423L1.35165 5.80973C1.35165 5.80973 1.5174 6.32398 1.9594 6.57898C1.9594 6.57898 1.6704 6.96998 1.93815 7.90073L3.17915 12.1167Z" fill="#2D2D2D"/>
<path d="M11.8024 1.0752C9.20566 1.0752 7.09766 3.22995 7.09766 5.8862C7.09766 8.54245 9.20566 10.6972 11.8024 10.6972C14.3992 10.6972 16.5114 8.54245 16.5114 5.8862C16.5114 3.22995 14.4034 1.0752 11.8024 1.0752ZM11.0544 3.8122C11.0544 3.8122 9.73266 3.68895 9.59241 5.16795C9.59241 5.16795 9.54991 5.43145 9.25666 5.45694C8.96341 5.4782 8.87841 5.19345 8.87841 5.19345C8.87841 5.19345 8.82741 3.3022 11.0374 3.14495C11.0374 3.14495 11.3647 3.2002 11.3817 3.4467C11.3987 3.69745 11.1904 3.7952 11.0544 3.8122Z" fill="#2D2D2D"/>
</svg>
