<svg width="16" height="16" viewBox="0 0 16 16" fill="none" xmlns="http://www.w3.org/2000/svg">
<path d="M13.4374 5.19379C13.4374 5.19379 13.028 4.35004 13.4905 3.69379C13.953 3.04066 14.0092 3.20316 13.5717 2.82191C13.5717 2.82191 8.06549 0.015662 3.94986 3.36566C3.94986 3.36566 0.734237 5.95629 2.53111 10.4532C2.53111 10.4532 2.96861 11.2719 2.69361 11.7625C2.42174 12.2532 1.79361 12.6625 2.74674 13.0157C3.69986 13.3688 7.76236 15.6875 11.603 12.9875C15.5592 10.2157 13.4467 5.20316 13.4374 5.19379ZM8.00924 12.2407C5.61236 12.2407 3.66549 10.2969 3.66549 7.90004C3.66549 5.50316 5.61236 3.56254 8.00924 3.56254C10.4061 3.56254 12.353 5.50629 12.353 7.90316C12.353 10.3 10.4092 12.2407 8.00924 12.2407Z" fill="#2D2D2D"/>
<path d="M8.04053 4.67505C6.27803 4.67505 4.85303 6.10317 4.85303 7.86255C4.85303 9.62505 6.28115 11.05 8.04053 11.05C9.80303 11.05 11.228 9.62192 11.228 7.86255C11.2312 6.10317 9.80303 4.67505 8.04053 4.67505ZM9.0499 7.7813C8.5374 7.7813 8.12178 7.36567 8.12178 6.85317C8.12178 6.34067 8.5374 5.92505 9.0499 5.92505C9.5624 5.92505 9.97803 6.34067 9.97803 6.85317C9.97803 7.3688 9.5624 7.7813 9.0499 7.7813Z" fill="#2D2D2D"/>
</svg>
