<svg width="14" height="14" viewBox="0 0 14 14" fill="none" xmlns="http://www.w3.org/2000/svg">
<path d="M1.60907 6.00179L4.04018 3.39708C4.18693 3.24004 4.39439 3.14997 4.60904 3.14997H14V1.98332C14 1.85429 13.8957 1.75 13.7667 1.75H3.73682C3.52193 1.75 3.31472 1.84007 3.16796 1.99711L0.20907 5.16739C0.0742109 5.31207 0 5.50036 0 5.698V7.58332V12.0166C0 12.1457 0.104535 12.25 0.233324 12.25H13.7666C13.8957 12.25 14 12.1457 14 12.0167V7.58332V3.61668H4.60904C4.52293 3.61668 4.43986 3.65261 4.38107 3.71561L1.95043 6.32007C1.89629 6.37793 1.86668 6.45332 1.86668 6.53239V7.35H1.4V6.53239C1.4 6.33475 1.47421 6.14646 1.60907 6.00179ZM1.63332 7.81668H13.5333V11.7834H0.466676V7.81668H1.63332Z" fill="#2D2D2D"/>
<path d="M6.30002 9.6833C6.35977 9.6833 6.41949 9.66044 6.46499 9.61494L6.7667 9.31323V10.85C6.7667 10.979 6.87123 11.0833 7.00002 11.0833C7.12881 11.0833 7.23335 10.979 7.23335 10.85V9.31326L7.53506 9.61497C7.58056 9.66047 7.6403 9.68333 7.70002 9.68333C7.75977 9.68333 7.81949 9.66047 7.86499 9.61497C7.95623 9.52375 7.95623 9.37626 7.86499 9.28504L7.16523 8.58529C7.14352 8.56357 7.11787 8.54654 7.08916 8.53465C7.03223 8.51108 6.96784 8.51108 6.91091 8.53465C6.8822 8.54654 6.85655 8.56357 6.83484 8.58529L6.13508 9.28504C6.04384 9.37626 6.04384 9.52375 6.13508 9.61497C6.18056 9.66044 6.24028 9.6833 6.30002 9.6833Z" fill="#2D2D2D"/>
</svg>
