<svg width="11" height="12" viewBox="0 0 11 12" fill="none" xmlns="http://www.w3.org/2000/svg">
<path d="M10.0313 11.6875C10.0313 11.7455 10.0082 11.8012 9.9672 11.8422C9.92618 11.8832 9.87054 11.9063 9.81252 11.9063H4.12502C4.067 11.9063 4.01136 11.8832 3.97034 11.8422C3.92932 11.8012 3.90627 11.7455 3.90627 11.6875C3.90627 11.6295 3.92932 11.5738 3.97034 11.5328C4.01136 11.4918 4.067 11.4688 4.12502 11.4688H9.81252C9.87054 11.4688 9.92618 11.4918 9.9672 11.5328C10.0082 11.5738 10.0313 11.6295 10.0313 11.6875ZM10.0313 7.75001V9.50001C10.0313 9.67405 9.96213 9.84097 9.83906 9.96404C9.71599 10.0871 9.54907 10.1563 9.37502 10.1563H4.24041C4.11841 10.1567 3.99873 10.123 3.89491 10.0589C3.7911 9.99483 3.70732 9.90295 3.65307 9.79368L0.475177 3.44993C0.429841 3.35867 0.40625 3.25815 0.40625 3.15626C0.40625 3.05436 0.429841 2.95384 0.475177 2.86258L1.68486 0.456334C1.76219 0.301562 1.89751 0.183588 2.06137 0.128078C2.22524 0.0725686 2.40439 0.0840151 2.55986 0.159927L4.40721 0.940318L4.41979 0.946334C4.49689 0.984858 4.56564 1.03819 4.62213 1.10329C4.67861 1.16839 4.72172 1.24398 4.74899 1.32574C4.77626 1.4075 4.78716 1.49383 4.78106 1.57981C4.77497 1.66578 4.75199 1.74971 4.71346 1.8268L4.71018 1.83227L3.92815 3.27985C3.91338 3.30988 3.9057 3.34291 3.9057 3.37637C3.9057 3.40984 3.91338 3.44286 3.92815 3.4729L5.66611 6.9729C5.68433 7.00905 5.71223 7.03945 5.7467 7.06069C5.78117 7.08193 5.82086 7.09319 5.86135 7.09321H9.37502C9.46125 7.09321 9.54663 7.1102 9.62628 7.14322C9.70594 7.17623 9.77831 7.22462 9.83925 7.28561C9.9002 7.34661 9.94853 7.41902 9.98147 7.4987C10.0144 7.57838 10.0313 7.66378 10.0313 7.75001ZM9.59377 7.75001C9.59377 7.69199 9.57072 7.63635 9.5297 7.59533C9.48868 7.5543 9.43304 7.53126 9.37502 7.53126H5.86244C5.74017 7.53203 5.62013 7.49846 5.516 7.43435C5.41187 7.37025 5.32784 7.2782 5.27346 7.16868L3.53549 3.66868C3.49004 3.57765 3.46639 3.4773 3.46639 3.37555C3.46639 3.27381 3.49004 3.17346 3.53549 3.08243L3.53877 3.07641L4.31916 1.62883C4.34379 1.57801 4.34781 1.51964 4.33038 1.46592C4.31295 1.4122 4.27542 1.36731 4.22565 1.34063L2.38213 0.56024L2.369 0.554224C2.33884 0.538961 2.30547 0.531088 2.27166 0.531255C2.23102 0.531226 2.19118 0.542519 2.1566 0.563866C2.12202 0.585213 2.09407 0.615772 2.07588 0.652115L0.866192 3.05837C0.851073 3.08868 0.843203 3.1221 0.843203 3.15598C0.843203 3.18986 0.851073 3.22328 0.866192 3.2536L4.04408 9.59735C4.06227 9.63369 4.09022 9.66425 4.1248 9.6856C4.15938 9.70695 4.19922 9.71824 4.23986 9.71821H9.37502C9.43304 9.71821 9.48868 9.69516 9.5297 9.65414C9.57072 9.61311 9.59377 9.55748 9.59377 9.49946V7.75001Z" fill="#2D2D2D"/>
</svg>
