<svg width="18" height="12" viewBox="0 0 18 12" fill="none" xmlns="http://www.w3.org/2000/svg">
<path d="M17.9695 10.9528C17.9695 10.9131 17.9659 10.8734 17.9659 10.8373C17.9659 10.7976 17.9623 10.758 17.9623 10.7219V10.6894V10.675V10.6714V10.6353V10.6281L17.9587 10.5776C17.9551 10.5126 17.9479 10.4441 17.9443 10.3792L17.9407 10.3287L17.9335 10.2637C17.9298 10.2204 17.9262 10.1771 17.9226 10.1338C17.919 10.0906 17.9154 10.0473 17.9118 10.004C17.9082 9.98593 17.9082 9.96068 17.9046 9.94264C17.901 9.92461 17.901 9.90296 17.8974 9.88492C17.8757 9.72979 17.8577 9.57467 17.8324 9.42675C17.8216 9.35099 17.8108 9.28245 17.7928 9.20669C17.7783 9.13814 17.7639 9.06599 17.7495 9.00106C17.7206 8.86757 17.6917 8.7377 17.6593 8.62586C17.6521 8.597 17.6448 8.56814 17.6412 8.53928C17.634 8.51042 17.6268 8.48517 17.6196 8.45631C17.6052 8.4058 17.5907 8.35529 17.5763 8.30839C17.5655 8.26149 17.5547 8.2182 17.5366 8.17852C17.5258 8.13883 17.515 8.09915 17.5005 8.07029C17.4861 8.02339 17.4717 7.9801 17.4609 7.94763C17.4464 7.90073 17.3959 7.87187 17.349 7.8863L14.3078 8.75213C14.2609 8.76295 14.232 8.80985 14.2429 8.85675C14.2465 8.87479 14.2501 8.89643 14.2537 8.91808C14.2573 8.93973 14.2609 8.96498 14.2681 8.99384C14.2717 9.0227 14.2753 9.05156 14.2825 9.08403C14.2862 9.1165 14.2934 9.14897 14.297 9.18504C14.3006 9.20308 14.3006 9.22112 14.3042 9.23916C14.3078 9.2572 14.3078 9.27884 14.3114 9.29688C14.3186 9.37625 14.3294 9.45922 14.3403 9.54941C14.3439 9.59631 14.3475 9.64321 14.3511 9.69011C14.3547 9.73701 14.3547 9.78752 14.3583 9.83442C14.3655 9.93182 14.3619 10.0364 14.3655 10.1375V10.1771V10.2132C14.3655 10.2349 14.3655 10.2601 14.3619 10.2818C14.3619 10.3034 14.3619 10.3287 14.3619 10.3503V10.3864L14.3583 10.4369C14.3547 10.5018 14.3547 10.5704 14.3511 10.6353L14.3475 10.6858V10.693C14.3475 10.7002 14.3475 10.6353 14.3475 10.6606V10.6642V10.675V10.693C14.3439 10.7219 14.3439 10.7435 14.3403 10.7724C14.3367 10.8013 14.3367 10.8229 14.3331 10.8518C14.3294 10.8806 14.3258 10.9023 14.3258 10.9275C14.3186 10.978 14.315 11.0285 14.3078 11.0754C14.3006 11.1223 14.2934 11.1728 14.2898 11.2197C14.2825 11.2666 14.2753 11.3099 14.2681 11.3568C14.2609 11.4001 14.2537 11.4434 14.2465 11.4867C14.2393 11.53 14.232 11.5697 14.2248 11.6021C14.2176 11.6418 14.2104 11.6779 14.2032 11.7104C14.1996 11.7248 14.196 11.7465 14.1924 11.7609C14.1887 11.7753 14.1851 11.7897 14.1815 11.8006C14.1779 11.8078 14.1779 11.815 14.1743 11.8222H17.8938C17.9443 11.8222 17.984 11.7825 17.9876 11.732C17.9912 11.6635 17.9948 11.5913 17.9948 11.5156C17.9948 11.4398 17.9984 11.3677 17.9984 11.2919C18.002 11.2161 17.9984 11.1404 17.9984 11.061C17.9695 11.0321 17.9695 10.9925 17.9695 10.9528Z" fill="#2D2D2D"/>
<path d="M16.9993 7.05289C17.0498 7.03485 17.0751 6.97352 17.0498 6.92663C17.039 6.90498 17.0282 6.87973 17.0137 6.85086C16.9993 6.822 16.9849 6.79675 16.9704 6.76067C16.9524 6.72099 16.9271 6.67409 16.9091 6.62719C16.8875 6.58029 16.8622 6.52979 16.8333 6.47928C16.8225 6.45042 16.8045 6.42877 16.7937 6.40352C16.7828 6.38188 16.7648 6.35301 16.7504 6.32415C16.7215 6.27365 16.6926 6.21953 16.6602 6.16542C16.6277 6.1113 16.5952 6.05358 16.5628 5.99225C16.5483 5.96339 16.5267 5.93453 16.5123 5.90206C16.4942 5.86959 16.4762 5.84434 16.4582 5.81187C16.4185 5.75415 16.3788 5.68921 16.3427 5.62788C16.2597 5.50522 16.1804 5.37896 16.0866 5.25269C16.0649 5.22022 16.0397 5.19136 16.0216 5.15889L15.9856 5.11199L15.9495 5.06509C15.9026 5.00377 15.8521 4.93883 15.8052 4.8775C15.7583 4.81617 15.7078 4.75484 15.6573 4.69712C15.6356 4.66465 15.6068 4.6394 15.5815 4.60693C15.5526 4.57807 15.531 4.54921 15.5021 4.52034C15.4733 4.49148 15.4516 4.46262 15.4264 4.43376C15.4047 4.4049 15.3759 4.37604 15.347 4.34718C15.2965 4.29307 15.246 4.23895 15.1955 4.18484C15.145 4.13072 15.0945 4.08382 15.044 4.03332C14.9935 3.98281 14.9466 3.93591 14.8961 3.88901C14.8455 3.84211 14.7986 3.79882 14.7554 3.75553C14.7085 3.71224 14.6616 3.67256 14.6183 3.63287C14.575 3.59319 14.5317 3.55711 14.492 3.52464C14.4487 3.48857 14.409 3.45971 14.3766 3.42724C14.3441 3.39477 14.308 3.36952 14.2755 3.34065C14.2431 3.31179 14.2142 3.29376 14.1854 3.27211C14.1457 3.23964 14.1168 3.218 14.0879 3.19635C14.0483 3.16388 13.9905 3.1747 13.9581 3.21078L12.3274 5.18775C12.295 5.22744 12.2986 5.28155 12.3346 5.31402C12.3491 5.32484 12.3671 5.34288 12.3815 5.36092C12.396 5.37535 12.4176 5.397 12.4357 5.41503C12.4537 5.43307 12.479 5.45832 12.5006 5.47997C12.5222 5.50162 12.5475 5.53048 12.5764 5.55934C12.598 5.5882 12.6269 5.61706 12.6557 5.64953C12.6846 5.682 12.7098 5.71086 12.7423 5.74693C12.7712 5.78301 12.8 5.81548 12.8289 5.85156C12.8614 5.88763 12.8866 5.92731 12.9191 5.96339C12.9516 6.00307 12.9804 6.04276 13.0129 6.08605C13.0453 6.12934 13.0742 6.16902 13.1067 6.21232C13.1211 6.23035 13.1391 6.25561 13.1536 6.27725C13.168 6.2989 13.186 6.32055 13.2005 6.34219C13.2149 6.36384 13.2329 6.38548 13.2474 6.40713C13.2618 6.42877 13.2762 6.45403 13.2907 6.47567C13.3195 6.52257 13.3484 6.56586 13.3772 6.61276C13.4061 6.65966 13.4314 6.70656 13.4602 6.75346L13.4783 6.78954L13.4963 6.82561C13.5071 6.84726 13.5252 6.87251 13.536 6.89416C13.5901 6.98795 13.6334 7.08175 13.6803 7.17194C13.6983 7.21884 13.7236 7.26213 13.7416 7.30903C13.7524 7.33068 13.7597 7.35232 13.7741 7.37397C13.7813 7.39562 13.7921 7.41726 13.8029 7.43891C13.821 7.4822 13.839 7.52188 13.8571 7.56517C13.8715 7.60486 13.8895 7.64454 13.904 7.68062C13.9112 7.69865 13.9184 7.7203 13.9256 7.73473C13.9328 7.74916 13.94 7.77081 13.9436 7.78524C13.9545 7.81771 13.9617 7.84296 13.9761 7.87182C13.9833 7.90068 13.9942 7.92233 14.005 7.94758C14.0158 7.98005 14.023 8.00891 14.0374 8.03777C14.0483 8.07024 14.0555 8.09189 14.0663 8.11714C14.0807 8.16764 14.1421 8.19651 14.1926 8.17486L16.9993 7.05289Z" fill="#2D2D2D"/>
<path d="M8.69075 3.52099C8.7124 3.5246 8.74126 3.5282 8.77373 3.53181C8.80619 3.53542 8.83505 3.54263 8.87113 3.54624C8.90721 3.55346 8.93968 3.55706 8.97936 3.56428C9.01544 3.56789 9.0443 3.5751 9.08398 3.58232L10.1158 1.47908C10.0653 1.47186 10.0147 1.46465 9.96424 1.45743C9.92816 1.45382 9.8993 1.44661 9.86323 1.443C9.82715 1.43939 9.79829 1.43579 9.76582 1.43218C9.70088 1.42496 9.63595 1.41775 9.57822 1.41053C9.51689 1.40693 9.45556 1.39971 9.40145 1.3961C9.34373 1.3925 9.29322 1.38528 9.23911 1.38528C9.1886 1.38167 9.13809 1.38167 9.0912 1.37806C9.0443 1.37446 9.001 1.37446 8.96132 1.37085C8.92164 1.37085 8.88195 1.37085 8.85309 1.37085C8.80619 1.37085 8.76651 1.37085 8.73765 1.37085C8.68714 1.37085 8.64385 1.41053 8.64385 1.46104L8.55005 3.41998C8.54645 3.46687 8.58252 3.51017 8.63303 3.51738C8.64024 3.51377 8.66189 3.51738 8.69075 3.52099Z" fill="#2D2D2D"/>
<path d="M11.4579 4.60331C11.4867 4.62135 11.512 4.643 11.5373 4.66103C11.5625 4.67907 11.5842 4.69711 11.6058 4.71154C11.613 4.71876 11.6274 4.72958 11.6419 4.7404C11.6527 4.74762 11.6635 4.75844 11.678 4.76926C11.7068 4.7873 11.7248 4.80534 11.7429 4.81977C11.7862 4.85224 11.8475 4.83781 11.8764 4.79812L13.2184 2.749C13.2509 2.7021 13.2328 2.64438 13.1859 2.61552C13.1679 2.60469 13.139 2.58665 13.1102 2.57222C13.0994 2.56501 13.0813 2.55779 13.0705 2.55058C13.0561 2.54336 13.038 2.53615 13.0236 2.52172C12.9839 2.50368 12.9442 2.47843 12.8973 2.45678C12.854 2.43514 12.8071 2.40627 12.7566 2.37741C12.7097 2.35577 12.6592 2.33051 12.6087 2.30165C12.5582 2.27279 12.5041 2.24754 12.4464 2.22229C12.3887 2.19342 12.3309 2.16817 12.2696 2.13931C12.2119 2.11045 12.1433 2.0852 12.082 2.05634C12.0207 2.02747 11.9521 2.00222 11.8872 1.97336C11.8728 1.96615 11.8511 1.96254 11.8367 1.95532L11.2559 4.47344C11.2883 4.49148 11.3172 4.51673 11.3497 4.53477C11.3966 4.56002 11.429 4.58167 11.4579 4.60331Z" fill="#2D2D2D"/>
<path d="M6.88658 3.51391C6.91544 3.5103 6.93709 3.50669 6.96595 3.50308C6.99481 3.49948 7.01645 3.49948 7.04171 3.49587C7.09221 3.49226 7.13911 3.48505 7.18601 3.48144C7.23291 3.47783 7.27981 3.47422 7.3231 3.47422C7.34475 3.47422 7.36639 3.47062 7.38443 3.47062C7.40247 3.47062 7.42772 3.46701 7.44215 3.46701C7.47823 3.46701 7.5107 3.46701 7.54677 3.4634C7.57924 3.4634 7.6081 3.4634 7.63696 3.45979C7.67304 3.45979 7.7019 3.45979 7.73076 3.45979C7.76323 3.45979 7.78848 3.45979 7.81374 3.45979C7.86785 3.45979 7.91114 3.41289 7.90753 3.36239L7.78487 1.51529C7.78127 1.46117 7.73437 1.42149 7.68025 1.4287C7.65861 1.43231 7.62975 1.43592 7.59728 1.43953C7.56842 1.44313 7.53595 1.44674 7.49987 1.45035C7.45658 1.45757 7.41329 1.46117 7.36639 1.46839C7.31949 1.4756 7.26899 1.48282 7.21487 1.49003C7.18601 1.49364 7.16436 1.49725 7.1355 1.50446C7.10664 1.50807 7.08139 1.51529 7.05253 1.51889C6.99841 1.52972 6.94069 1.54054 6.87936 1.55497C6.82164 1.56579 6.7567 1.58383 6.69537 1.59826C6.66291 1.60548 6.63405 1.61269 6.60158 1.61991C6.56911 1.62712 6.54025 1.63434 6.50417 1.64155C6.43923 1.65598 6.37069 1.67763 6.30575 1.69567C6.24081 1.71371 6.16866 1.73535 6.10373 1.757C6.06765 1.76782 6.03518 1.77504 6.00271 1.78947C5.96664 1.80029 5.93417 1.81111 5.89809 1.82554C5.86202 1.83636 5.82955 1.84719 5.79347 1.86162C5.75739 1.87244 5.72493 1.88326 5.68885 1.9013C5.6203 1.93016 5.55176 1.95542 5.48322 1.98067C5.41467 2.00953 5.34613 2.03839 5.28119 2.06725C5.24511 2.08168 5.21625 2.09611 5.18018 2.11054C5.14771 2.12497 5.11524 2.14301 5.08277 2.15744C5.0503 2.17187 5.01783 2.18991 4.98536 2.20434C4.9529 2.21877 4.92043 2.23681 4.88796 2.25124C4.82663 2.28371 4.76169 2.31257 4.70036 2.34504C4.63903 2.37751 4.5777 2.40998 4.51998 2.44244C4.46226 2.47491 4.40454 2.50377 4.35042 2.53624C4.29631 2.56871 4.2458 2.59757 4.1953 2.63004C4.14479 2.66251 4.09789 2.69137 4.05099 2.72023C4.00409 2.7527 3.9608 2.77795 3.91751 2.80681C3.87422 2.83567 3.83453 2.86093 3.80207 2.88979C3.76599 2.91143 3.73352 2.93669 3.70105 2.95833C3.66858 2.97998 3.64333 3.00163 3.61447 3.01966C3.57839 3.04852 3.54953 3.06656 3.52428 3.0846C3.4846 3.11707 3.47377 3.17118 3.50263 3.21447L4.26745 4.34366C4.29631 4.38334 4.35042 4.39777 4.39011 4.37252C4.40815 4.3617 4.4334 4.35087 4.45865 4.33284C4.4803 4.32201 4.50555 4.30397 4.53441 4.28954C4.56327 4.27511 4.59213 4.25708 4.6246 4.24264C4.65707 4.22821 4.68954 4.20657 4.72562 4.18853C4.76169 4.1741 4.80138 4.15245 4.84106 4.13442C4.88074 4.11638 4.92403 4.09473 4.96733 4.07669C5.01062 4.05866 5.05752 4.03701 5.10442 4.01897C5.15131 4.00093 5.19821 3.97929 5.24872 3.96125C5.29923 3.94321 5.34973 3.91796 5.40024 3.90353C5.45075 3.88549 5.50486 3.86385 5.55898 3.84581C5.58784 3.83498 5.61309 3.82777 5.64195 3.81695C5.67081 3.80973 5.69606 3.79891 5.72493 3.78809C5.75379 3.78087 5.77904 3.77005 5.8079 3.75922C5.83676 3.75201 5.86202 3.74479 5.89448 3.73758C5.9486 3.72315 6.00632 3.70511 6.06404 3.69068C6.12176 3.67625 6.17588 3.66182 6.23721 3.64739C6.26607 3.64017 6.29132 3.63657 6.32379 3.62935C6.35265 3.62213 6.3779 3.61853 6.41037 3.61131C6.43923 3.6041 6.46449 3.60049 6.49335 3.59327C6.52221 3.58967 6.54746 3.58245 6.57632 3.57884C6.63044 3.57163 6.68455 3.56081 6.73867 3.54998C6.78196 3.52834 6.83607 3.51751 6.88658 3.51391Z" fill="#2D2D2D"/>
<path d="M1.656 4.97128C1.63797 5.00014 1.61632 5.029 1.59467 5.05786C1.57664 5.08672 1.55499 5.11558 1.53334 5.14444C1.51531 5.1733 1.49366 5.20216 1.47562 5.23463C1.43594 5.29235 1.39626 5.35008 1.36018 5.41501C1.3205 5.47634 1.28442 5.53767 1.24834 5.59539L1.21948 5.64229L1.19062 5.68919C1.17619 5.72166 1.15455 5.75052 1.14011 5.77938C1.07157 5.90204 1.00663 6.02109 0.945303 6.14014C0.916442 6.19787 0.887581 6.25559 0.858721 6.31692C0.84429 6.34578 0.82986 6.37464 0.815429 6.4035C0.804606 6.43236 0.786568 6.45761 0.775745 6.49008C0.7541 6.5442 0.725239 6.59831 0.699985 6.64882C0.67834 6.69932 0.656694 6.74983 0.638656 6.80034C0.620618 6.85084 0.598972 6.89414 0.580934 6.94103C0.566504 6.98793 0.548466 7.02762 0.534035 7.07091C0.519605 7.11059 0.505174 7.15028 0.490744 7.18275C0.479921 7.21882 0.469098 7.24768 0.458275 7.28015C0.447452 7.31983 0.436629 7.3487 0.425807 7.37756C0.411376 7.42446 0.433022 7.47496 0.479921 7.493L1.19423 7.76718C1.24113 7.78161 1.29163 7.76357 1.30967 7.72028C1.3205 7.69863 1.33132 7.67338 1.34936 7.64091C1.36018 7.61927 1.371 7.59041 1.38904 7.55794C1.40347 7.52547 1.42151 7.49661 1.43955 7.46414C1.45398 7.42806 1.47562 7.39559 1.49366 7.35591C1.5117 7.31623 1.53695 7.27654 1.5586 7.24047C1.58024 7.20078 1.6055 7.15749 1.62714 7.11059C1.656 7.0673 1.68126 7.02401 1.71012 6.97711C1.72455 6.95547 1.73898 6.93021 1.75341 6.90857C1.76784 6.88692 1.78588 6.86167 1.80031 6.84002C1.83278 6.79312 1.86164 6.74622 1.89411 6.69572C1.95904 6.60192 2.02759 6.50091 2.09974 6.4035C2.11778 6.38185 2.13582 6.35299 2.15385 6.32774L2.18272 6.29166L2.21158 6.25559C2.25126 6.20869 2.29094 6.15818 2.32341 6.11128C2.3631 6.06438 2.40278 6.01749 2.43886 5.97059C2.45689 5.94894 2.47854 5.92369 2.49658 5.90204C2.51462 5.8804 2.53626 5.85514 2.55791 5.8371C2.57595 5.81546 2.59759 5.79381 2.61563 5.77217C2.63367 5.75052 2.65531 5.72888 2.67696 5.70723C2.72025 5.66394 2.75993 5.62065 2.79962 5.58096C2.8393 5.53767 2.88259 5.5016 2.92228 5.46552C2.96196 5.42584 3.00164 5.38615 3.03772 5.35729C3.0774 5.32122 3.11709 5.28875 3.14956 5.25628C3.18563 5.2202 3.22532 5.19495 3.25779 5.16248C3.29386 5.13001 3.32272 5.10476 3.35519 5.0759C3.38766 5.05425 3.41291 5.029 3.44538 5.00735C3.47424 4.98571 3.4995 4.96406 3.52475 4.94602C3.53557 4.93881 3.55361 4.92798 3.56443 4.91355C3.57526 4.90634 3.58608 4.89552 3.60051 4.88469C3.62215 4.86666 3.64741 4.84862 3.66545 4.83419C3.70874 4.80172 3.71595 4.74039 3.67988 4.6971L2.86816 3.74469C2.83209 3.705 2.77076 3.7014 2.73107 3.73747C2.71664 3.7519 2.69139 3.77355 2.67335 3.79519C2.66253 3.80602 2.65531 3.81323 2.64088 3.82766C2.63006 3.83848 2.61924 3.84931 2.6012 3.86374C2.57234 3.8926 2.54348 3.92146 2.51101 3.95393C2.47854 3.9864 2.44607 4.01887 2.41 4.05855C2.37392 4.09463 2.34145 4.13431 2.30537 4.17039C2.2693 4.21007 2.22961 4.25336 2.19354 4.29665C2.15385 4.33994 2.11417 4.38684 2.07809 4.43374C2.03841 4.48064 1.99512 4.53115 1.95544 4.57805C1.91575 4.62855 1.87246 4.67906 1.82917 4.73317C1.78949 4.78729 1.74619 4.8414 1.7029 4.89552C1.69569 4.91355 1.67765 4.94242 1.656 4.97128Z" fill="#2D2D2D"/>
<path d="M0.176773 8.31192C0.173166 8.33357 0.16595 8.36243 0.162343 8.3949C0.158735 8.42376 0.15152 8.45262 0.144305 8.48869C0.137089 8.52477 0.133482 8.56806 0.126267 8.60414C0.119051 8.64743 0.111836 8.69433 0.104621 8.74123C0.101013 8.76287 0.0974056 8.78813 0.093798 8.81699C0.0901904 8.83863 0.0865828 8.86749 0.0829752 8.89275C0.0721523 8.99376 0.0505066 9.1092 0.0432914 9.22465C0.0360762 9.28237 0.0324685 9.34731 0.0252533 9.40864C0.0216457 9.46997 0.0180381 9.5349 0.0144305 9.59984C0.00360762 9.72971 0.00360762 9.8632 0 9.99668V10.0472V10.0977C0 10.1338 0 10.1626 0 10.1987C0 10.2348 0 10.2672 0 10.2997V10.3502V10.4007C0.00360762 10.4693 0.00360761 10.5378 0.00721523 10.6064L0.0108229 10.6569V10.6713L0.0144305 10.7074C0.0180381 10.7398 0.0180381 10.7723 0.0216457 10.8048C0.0252533 10.8373 0.0252533 10.8697 0.0288609 10.9022C0.0324686 10.9383 0.0360762 10.9671 0.0396838 11.0032C0.0432914 11.0393 0.046899 11.0681 0.0505066 11.1006C0.0505066 11.115 0.0541142 11.1331 0.0541142 11.1511C0.0577219 11.1655 0.0577219 11.1836 0.0613295 11.198C0.0685447 11.2593 0.0757599 11.3243 0.0829752 11.3856C0.0901904 11.4469 0.101013 11.5083 0.111836 11.566C0.119051 11.6237 0.129874 11.6778 0.140697 11.7355C0.140697 11.7392 0.140697 11.7428 0.144305 11.7464C0.15152 11.7897 0.191204 11.8257 0.238103 11.8257H0.487028C0.541142 11.8257 0.584434 11.7788 0.580826 11.7283C0.580826 11.7139 0.580826 11.6995 0.577219 11.685C0.573611 11.6345 0.570003 11.5804 0.570003 11.5263C0.570003 11.4722 0.566396 11.4145 0.566396 11.3531C0.566396 11.2918 0.566396 11.2377 0.566396 11.1728C0.566396 11.1583 0.566396 11.1403 0.566396 11.1259C0.566396 11.1114 0.566396 11.0934 0.566396 11.079C0.566396 11.0465 0.566396 11.0176 0.570003 10.9888C0.570003 10.9563 0.570003 10.9274 0.573611 10.895C0.573611 10.8625 0.577219 10.83 0.577219 10.7976C0.577219 10.7651 0.580826 10.7326 0.580826 10.7002V10.6785V10.6677C0.580826 10.6641 0.580826 10.6713 0.580826 10.6713V10.6677V10.6605L0.584434 10.6136C0.588041 10.5522 0.595257 10.4837 0.598864 10.4224L0.602472 10.3755L0.60608 10.3286C0.609687 10.2961 0.613295 10.2672 0.616902 10.2348C0.62051 10.2023 0.624118 10.1735 0.627725 10.141L0.631333 10.0941L0.638548 10.0472C0.656586 9.92092 0.674624 9.80187 0.69627 9.68281C0.707093 9.62509 0.714308 9.56737 0.728738 9.50965C0.739561 9.45554 0.750384 9.40142 0.764815 9.34731C0.78646 9.24269 0.815321 9.14167 0.840575 9.05148C0.84779 9.02984 0.851397 9.00458 0.855005 8.98655C0.86222 8.9649 0.865828 8.94325 0.873043 8.92522C0.883866 8.88553 0.894689 8.84585 0.909119 8.81338C0.919942 8.7773 0.927157 8.74484 0.941588 8.71237C0.952411 8.6799 0.959626 8.65104 0.974056 8.62218C0.984879 8.58971 0.992094 8.56806 1.00292 8.54281C1.01735 8.4923 0.992094 8.43819 0.93798 8.42015L0.30304 8.24338C0.24171 8.22534 0.187596 8.2542 0.176773 8.31192Z" fill="#2D2D2D"/>
<path d="M7.31983 11.5804C7.52546 11.6815 7.74192 11.7284 7.95477 11.7284C8.4923 11.7284 9.00819 11.4289 9.26073 10.913C9.30763 10.8156 9.34731 10.7074 9.36895 10.5992L10.8373 4.22452L11.3964 1.79659L11.7428 0.292217C11.7824 0.115444 11.6454 0 11.5047 0C11.4217 0 11.3423 0.0396839 11.2954 0.13709L10.5883 1.57653L9.54934 3.70502L6.65242 9.63594C6.29887 10.3575 6.5983 11.2269 7.31983 11.5804ZM8.00888 9.52411C8.40211 9.52411 8.71958 9.84518 8.71958 10.2348C8.71958 10.628 8.39851 10.9455 8.00888 10.9455C7.61565 10.9455 7.29818 10.6244 7.29818 10.2348C7.29457 9.84518 7.61565 9.52411 8.00888 9.52411Z" fill="#2D2D2D"/>
</svg>
