<svg width="16" height="16" viewBox="0 0 16 16" fill="none" xmlns="http://www.w3.org/2000/svg">
<path d="M15.1408 0.858901C15.056 0.773672 14.9479 0.715394 14.83 0.691378C14.7122 0.667361 14.5899 0.678675 14.4784 0.723901L1.05854 6.2139C0.936676 6.26415 0.834346 6.35248 0.766836 6.46569C0.699326 6.5789 0.670261 6.71092 0.683983 6.84201C0.697705 6.97311 0.753479 7.09625 0.842969 7.19303C0.932459 7.2898 1.05086 7.35503 1.18049 7.37895L7.47508 8.5233L8.61988 14.8175C8.64334 14.9473 8.70832 15.066 8.80505 15.1558C8.90179 15.2455 9.02504 15.3015 9.15629 15.3152C9.17743 15.3152 9.20129 15.3183 9.21974 15.3183C9.34088 15.3182 9.45927 15.2821 9.55983 15.2146C9.6604 15.147 9.7386 15.0511 9.78448 14.939L15.2745 1.51995C15.3196 1.40883 15.3311 1.28686 15.3073 1.16928C15.2835 1.05171 15.2256 0.943753 15.1408 0.858901Z" fill="#2D2D2D"/>
</svg>
