<svg width="17" height="17" viewBox="0 0 17 17" fill="none" xmlns="http://www.w3.org/2000/svg">
<path d="M8.60609 9.02466C8.45336 9.0977 8.30062 9.17407 8.14457 9.24712C7.8059 9.41313 7.6266 9.79497 7.71293 10.1668C7.77933 10.4557 8.01508 10.6915 8.30394 10.7579C8.67914 10.8442 9.05765 10.6649 9.22367 10.3262C9.29672 10.1735 9.37308 10.0241 9.44281 9.86802C9.67191 9.38657 9.91098 8.88853 10.1899 8.42036L10.4024 8.06177L10.0438 8.27427C9.57894 8.55981 9.08422 8.79556 8.60609 9.02466Z" fill="#2D2D2D"/>
<path d="M6.34473 13.4772H10.6512V12.3981H6.34473V13.4772Z" fill="#2D2D2D"/>
<path d="M11.4217 7.42095L10.6547 8.70259C10.3857 9.15415 10.1566 9.6356 9.93086 10.1071C9.85781 10.2631 9.78144 10.4125 9.7084 10.5686C9.4793 11.0401 9.00449 11.3223 8.49316 11.3223C8.39023 11.3223 8.2873 11.3124 8.18437 11.2858C7.69297 11.1729 7.29785 10.7844 7.18828 10.2897C7.04883 9.6688 7.34434 9.04126 7.90879 8.76899C8.06484 8.69595 8.21758 8.61958 8.37695 8.54653C8.84512 8.32407 9.32988 8.09165 9.77812 7.82271L11.0564 7.05571C11.1627 6.99263 11.2955 7.01255 11.3852 7.09556C11.4682 7.17856 11.4848 7.31138 11.4217 7.42095ZM11.1859 13.7461C11.1859 13.8956 11.0631 14.0151 10.917 14.0151H6.07598C5.92656 14.0151 5.80703 13.8922 5.80703 13.7461V12.1325C5.80703 11.9831 5.92988 11.8635 6.07598 11.8635H10.9236C11.073 11.8635 11.1926 11.9864 11.1926 12.1325L11.1859 13.7461ZM14.5893 12.8297C14.4564 12.77 14.3934 12.6073 14.4564 12.4711C14.5162 12.3383 14.6756 12.2752 14.815 12.3383L16.027 12.8928C16.3523 12.0528 16.535 11.1596 16.5648 10.2399H14.1543C14.0049 10.2399 13.8854 10.117 13.8854 9.97095C13.8854 9.82485 14.0082 9.702 14.1543 9.702H16.5748C16.5416 8.78892 16.3623 7.91567 16.0535 7.1022L14.8549 7.67329C14.815 7.69321 14.7785 7.69985 14.7353 7.69985C14.6357 7.69985 14.5361 7.64341 14.493 7.54712C14.4299 7.41431 14.4863 7.25161 14.6225 7.18853L15.8443 6.60415C15.4725 5.79067 14.9678 5.05689 14.3635 4.41938L13.4604 5.39556C13.4072 5.452 13.3342 5.48188 13.2611 5.48188C13.198 5.48188 13.1316 5.45532 13.0752 5.41216C12.9656 5.30923 12.9557 5.13989 13.0619 5.027L13.975 4.03755C13.3574 3.47642 12.6602 3.00161 11.9031 2.64966L11.352 3.88149C11.3088 3.9811 11.2125 4.04087 11.1096 4.04087C11.073 4.04087 11.0365 4.03423 11 4.01431C10.8672 3.95454 10.8041 3.79517 10.8672 3.65571L11.4184 2.44048C10.5916 2.11841 9.70176 1.93247 8.77207 1.90259V4.31645C8.77207 4.46587 8.64922 4.5854 8.50312 4.5854C8.35371 4.5854 8.23418 4.46255 8.23418 4.31645V1.90591C7.36426 1.93579 6.52422 2.10181 5.74062 2.38403L6.21543 3.64575C6.26855 3.78188 6.19551 3.94126 6.05937 3.99439C6.02617 4.00435 5.99629 4.01431 5.96309 4.01431C5.85352 4.01431 5.75059 3.9479 5.71074 3.84165L5.23594 2.58989C4.40254 2.95845 3.63887 3.46978 2.97812 4.08403L3.92441 5.03032C4.03066 5.13657 4.03066 5.30591 3.92441 5.41548C3.87129 5.4686 3.80156 5.49185 3.73184 5.49185C3.66211 5.49185 3.5957 5.46528 3.53926 5.41548L2.59297 4.46919C2.01523 5.09009 1.53047 5.79731 1.17187 6.57427L2.39707 7.12876C2.52988 7.18853 2.59297 7.3479 2.52988 7.48735C2.48672 7.58696 2.39043 7.64673 2.2875 7.64673C2.25098 7.64673 2.21445 7.64009 2.17793 7.62017L0.962695 7.06899C0.640625 7.89243 0.454687 8.7856 0.424805 9.71196H2.83867C2.98809 9.71196 3.10762 9.83481 3.10762 9.98091C3.10762 10.127 2.98477 10.2499 2.83867 10.2499H0.428125C0.458008 11.1364 0.627344 11.993 0.926172 12.8032L2.15137 12.2719C2.2875 12.2122 2.44687 12.2752 2.50664 12.4114C2.56641 12.5442 2.50332 12.7069 2.36719 12.7667L1.12871 13.3012C1.39766 13.8956 1.74629 14.4633 2.16133 14.9913C2.21113 15.0543 2.29082 15.0942 2.37383 15.0942H14.6125C14.6922 15.0942 14.7719 15.0543 14.825 14.9913C15.2201 14.4932 15.5488 13.9586 15.8111 13.3942L14.5893 12.8297Z" fill="#2D2D2D"/>
</svg>
