<svg width="18" height="13" viewBox="0 0 18 13" fill="none" xmlns="http://www.w3.org/2000/svg">
<path d="M15.8683 0H1.59315C0.717595 0 0 0.708568 0 1.58864V11.1069C0 11.978 0.708568 12.7001 1.59315 12.7001H15.8773C16.7484 12.7001 17.4705 11.9825 17.4705 11.1069V1.58412C17.4615 0.708569 16.7439 0 15.8683 0ZM14.2842 11.1024H3.17276V1.58412H14.2842V11.1024Z" fill="#2D2D2D"/>
<path d="M11.9554 4.38233V3.0013C11.9554 2.92909 11.9193 2.8614 11.8832 2.82529C11.8471 2.78918 11.7749 2.78918 11.7072 2.78918L7.60022 4.09801C7.52801 4.13411 7.46031 4.20632 7.46031 4.27402V8.27269C7.2482 8.13278 6.96387 8.06057 6.68405 8.06057C6.36361 8.06057 6.07928 8.16889 5.87168 8.3088C5.62345 8.48481 5.51514 8.73303 5.51514 8.98577C5.51514 9.23851 5.65505 9.48222 5.87168 9.66275C6.0838 9.83876 6.36813 9.91097 6.68405 9.91097C7.00448 9.91097 7.28881 9.80266 7.49642 9.66275C7.74465 9.48673 7.85296 9.23851 7.85296 8.98577V5.80398L11.5312 4.63507V6.96838C11.3191 6.82847 11.0347 6.75626 10.7549 6.75626C10.4345 6.75626 10.1502 6.86458 9.94256 7.00449C9.69434 7.1805 9.58602 7.42873 9.58602 7.68147C9.58602 7.9342 9.72593 8.17791 9.94256 8.35844C10.1547 8.53445 10.439 8.60667 10.7549 8.60667C11.0754 8.60667 11.3597 8.49835 11.5673 8.35844C11.8155 8.18243 11.9238 7.9342 11.9238 7.68147V4.39136H11.9509V4.38233H11.9554ZM6.68405 9.54992C6.25981 9.54992 5.90778 9.30169 5.90778 9.01736C5.90778 8.73303 6.26432 8.48481 6.68405 8.48481C7.10829 8.48481 7.46031 8.73303 7.46031 9.01736C7.46031 9.30169 7.10829 9.54992 6.68405 9.54992ZM7.84845 5.40683V4.45003L11.5312 3.28112V4.23791L7.84845 5.40683ZM10.791 8.2411C10.3668 8.2411 10.0148 7.99287 10.0148 7.70854C10.0148 7.42421 10.3713 7.17599 10.791 7.17599C11.2153 7.17599 11.5673 7.42421 11.5673 7.70854C11.5673 7.99287 11.1747 8.2411 10.791 8.2411Z" fill="#2D2D2D"/>
</svg>
