<svg width="17" height="13" viewBox="0 0 17 13" fill="none" xmlns="http://www.w3.org/2000/svg">
<path d="M16.3428 3.08999H15.6621C15.4828 3.08999 15.3367 3.22944 15.3234 3.40542C15.3234 3.42202 15.2072 4.86636 14.3838 5.09878L13.6533 2.92729C13.142 1.39331 11.7143 0.364014 10.0939 0.364014H6.24902C3.80859 0.364014 1.65039 1.82495 0.747266 4.08608C0.465039 4.78999 0.322266 5.53042 0.322266 6.28745C0.322266 7.90444 1.64043 9.22593 3.26074 9.22593H11.5715C13.7164 9.22593 15.3434 12.4134 15.3566 12.4466C15.4131 12.5628 15.5293 12.6326 15.6588 12.6326H16.3395C16.5254 12.6326 16.6781 12.4798 16.6781 12.2939V3.42866C16.6814 3.24272 16.5287 3.08999 16.3428 3.08999ZM3.25742 8.54526C2.0123 8.54526 0.999609 7.53257 0.999609 6.28745C0.999609 5.62007 1.12578 4.96265 1.3748 4.33843C2.17832 2.33628 4.08418 1.048 6.24238 1.048H10.0906C11.4154 1.048 12.5842 1.89136 13.0025 3.14644L13.8393 5.65659C13.9156 5.88901 13.9521 6.12144 13.9521 6.35054C13.9521 7.56245 12.966 8.54526 11.7574 8.54526H3.25742Z" fill="#2D2D2D"/>
<path d="M13.2447 5.88564L12.4014 3.37881C12.076 2.40264 11.1662 1.74854 10.1369 1.74854H6.28867C4.4127 1.74854 2.74922 2.87744 2.05195 4.61396C1.83281 5.15186 1.72656 5.72295 1.72656 6.30732C1.72656 7.17725 2.43047 7.88115 3.30039 7.88115H11.8037C12.6371 7.88115 13.3211 7.20381 13.3211 6.36377C13.3211 6.20439 13.2945 6.0417 13.2447 5.88564ZM11.5646 7.16397H6.79668L6.79004 7.17061L3.54941 7.21045C3.17422 7.21709 2.83223 7.00791 2.66621 6.6792C2.41719 6.19443 2.35742 5.43076 2.96172 4.41475C4.0873 2.51553 5.80391 2.396 5.80391 2.396H10.0008C10.6947 2.43584 11.2891 2.89404 11.5148 3.55479L12.3516 6.06494C12.3781 6.15127 12.3947 6.2376 12.3947 6.32725C12.4014 6.78877 12.0262 7.16397 11.5646 7.16397Z" fill="#2D2D2D"/>
<path d="M5.81084 4.13586L5.01729 3.13977L4.22705 4.13586H5.81084Z" fill="#2D2D2D"/>
</svg>
