<svg width="17" height="17" viewBox="0 0 17 17" fill="none" xmlns="http://www.w3.org/2000/svg">
<path d="M16.3203 11.4622C16.2905 11.3602 16.2565 11.2625 16.2098 11.169L11.93 2.57123C11.5858 1.81048 10.791 1.75098 10.383 1.77648C10.2555 1.78498 10.1323 1.80623 10.009 1.84448C7.51853 2.60523 6.42628 3.48923 5.78453 4.10973C5.50828 4.38173 5.41053 4.69198 5.38928 4.96398C5.36803 5.24873 5.43178 5.52923 5.55928 5.78423C6.18403 7.01673 9.83053 14.2417 10.1535 14.8155C10.5063 15.4445 11.471 15.249 11.471 15.249C14.7393 14.501 15.6233 13.1835 16.1333 12.7287C16.5158 12.4015 16.4053 11.7767 16.3203 11.4622ZM7.29328 7.25048C7.33153 7.18248 7.38253 7.12723 7.44203 7.07623C8.49603 6.20923 11.3733 4.93423 11.913 4.81948C12.2573 4.74723 12.4995 4.96823 12.6355 5.14673C12.7163 5.25723 12.7588 5.38898 12.7588 5.52498L12.7503 6.05623C12.746 6.28573 12.6143 6.49398 12.406 6.59598L8.40678 8.52123C8.20703 8.61898 7.96903 8.59773 7.78628 8.46598L7.37403 8.17273C7.32303 8.13448 7.27628 8.09198 7.24228 8.04098C7.04678 7.76048 7.19553 7.42048 7.29328 7.25048ZM9.47353 13.0135L7.14878 8.49573L7.92228 9.01848L9.77528 12.4822L9.47353 13.0135ZM15.4533 10.7185C15.4533 10.7185 15.415 11.3092 13.8213 12.3207C12.219 13.3365 10.7868 13.5745 10.2555 13.515C9.73703 13.4555 9.88578 13.2345 9.88578 13.2345C13.035 12.8987 15.2663 10.5187 15.2663 10.5187C15.5043 10.4252 15.4533 10.7185 15.4533 10.7185ZM14.8795 10.0682L13.1668 6.53648L13.1965 5.60148L15.483 10.1405L14.8795 10.0682Z" fill="#2D2D2D"/>
<path d="M2.06996 1.27502H0.595215V15.7208H2.06996V1.27502Z" fill="#2D2D2D"/>
<path d="M4.90443 13.328C5.04468 13.4852 5.28268 13.498 5.43993 13.3577C5.59718 13.2175 5.60993 12.9795 5.46968 12.8222C4.50493 11.7427 4.59843 10.081 5.68218 9.11622C5.76293 9.04397 5.80118 8.95047 5.80968 8.85272C5.81393 8.75497 5.78418 8.65722 5.71193 8.57647C5.57168 8.41922 5.33368 8.40647 5.17643 8.54672C3.78668 9.78772 3.66343 11.9382 4.90443 13.328Z" fill="#2D2D2D"/>
<path d="M5.98828 12.3632C6.12853 12.5205 6.36653 12.5332 6.52378 12.393C6.68103 12.2527 6.69378 12.0147 6.55353 11.8575C6.12003 11.373 6.16253 10.6292 6.64703 10.2C6.72778 10.1277 6.76603 10.0342 6.77453 9.93646C6.77878 9.83871 6.74903 9.74096 6.67678 9.66021C6.53653 9.50296 6.29853 9.49021 6.14128 9.63046C5.35078 10.336 5.27853 11.5685 5.98828 12.3632Z" fill="#2D2D2D"/>
<path d="M4.19912 7.44601C2.20162 9.23101 2.02312 12.308 3.80812 14.3098C3.94837 14.467 4.18637 14.4798 4.34362 14.3395C4.50087 14.1993 4.51362 13.9613 4.37337 13.804C2.86887 12.1168 3.01762 9.52001 4.70487 8.01551C4.78562 7.94326 4.82387 7.84976 4.83237 7.75201C4.84087 7.65426 4.80687 7.55651 4.73462 7.47576C4.59437 7.31851 4.35637 7.30576 4.19912 7.44601Z" fill="#2D2D2D"/>
</svg>
