<svg width="18" height="18" viewBox="0 0 18 18" fill="none" xmlns="http://www.w3.org/2000/svg">
<path d="M15.4789 10.6021L15.4417 10.229L15.4294 10.2302L15.4173 10.2322L15.4789 10.6021ZM15.4789 10.6021L15.5163 10.9753L15.5285 10.974L15.5406 10.972L15.4789 10.6021ZM12.4484 14.7138L12.686 14.4235L12.6827 14.421L12.4484 14.7138ZM12.4484 14.7138L12.211 15.004L12.2142 15.0066L12.4484 14.7138ZM5.55156 14.7142L5.3141 14.4239L5.30816 14.4288L5.30242 14.4339L5.55156 14.7142ZM5.55156 14.7142L5.78901 15.0044L5.79495 14.9995L5.80068 14.9944L5.55156 14.7142ZM2.52116 7.39788V7.02288H2.50246L2.48385 7.02475L2.52116 7.39788ZM2.52116 7.39788L2.52117 7.77285H2.53988L2.55848 7.77105L2.52116 7.39788ZM10.9753 2.48377C10.9595 2.3261 10.946 2.18959 10.9271 2.0772C10.9076 1.96112 10.8788 1.84625 10.8211 1.73432L10.1546 2.0781C10.1623 2.09315 10.1744 2.1231 10.1875 2.20139C10.2013 2.28337 10.2122 2.39081 10.229 2.55839L10.9753 2.48377ZM11.1215 3.386C11.113 3.37487 11.0855 3.32904 11.0566 3.16838C11.0283 3.0113 11.0066 2.79788 10.9753 2.48377L10.229 2.55839C10.2591 2.85992 10.2837 3.10824 10.3184 3.30121C10.3525 3.4906 10.4048 3.68312 10.5251 3.84089L11.1215 3.386ZM11.4696 3.53021C11.3361 3.54817 11.2031 3.49312 11.1215 3.386L10.5251 3.84089C10.7703 4.16226 11.169 4.3274 11.5696 4.27351L11.4696 3.53021ZM12.211 2.99561C11.9666 3.19552 11.8004 3.33114 11.6694 3.42222C11.5353 3.51538 11.4835 3.52834 11.4696 3.53021L11.5696 4.27351C11.7662 4.24706 11.9394 4.14791 12.0974 4.03809C12.2584 3.9262 12.4514 3.76797 12.6859 3.57608L12.211 2.99561ZM12.8499 2.57468C12.7299 2.613 12.6283 2.67384 12.5324 2.74214C12.4396 2.80827 12.3336 2.89528 12.211 2.99561L12.6859 3.57608C12.8162 3.46943 12.8999 3.4012 12.9677 3.35297C13.0323 3.3069 13.062 3.29426 13.0781 3.2891L12.8499 2.57468ZM13.6395 2.61406C13.3898 2.50583 13.1092 2.49183 12.8499 2.57468L13.0781 3.2891C13.1645 3.26149 13.2581 3.26615 13.3413 3.30223L13.6395 2.61406ZM14.2334 3.09649C14.1214 2.98444 14.0245 2.88731 13.9387 2.81228C13.8501 2.73479 13.7551 2.66413 13.6395 2.61406L13.3413 3.30223C13.3569 3.30896 13.3852 3.3245 13.4449 3.37677C13.5075 3.43151 13.584 3.50773 13.703 3.62681L14.2334 3.09649ZM14.9035 3.76658L14.2334 3.09649L13.703 3.62681L14.3731 4.29692L14.9035 3.76658ZM15.386 4.36047C15.3359 4.24491 15.2652 4.14986 15.1877 4.06127C15.1126 3.97549 15.0155 3.87863 14.9035 3.76658L14.3731 4.29692C14.4922 4.41601 14.5684 4.49251 14.6232 4.55507C14.6755 4.61483 14.691 4.64312 14.6978 4.65866L15.386 4.36047ZM15.4253 5.1501C15.5081 4.8908 15.4942 4.61025 15.386 4.36047L14.6978 4.65866C14.7338 4.74192 14.7385 4.83543 14.7109 4.92187L15.4253 5.1501ZM15.0044 5.78904C15.1047 5.6664 15.1917 5.56037 15.2578 5.46755C15.3261 5.37168 15.387 5.27007 15.4253 5.1501L14.7109 4.92187C14.7057 4.93801 14.6931 4.96769 14.647 5.03235C14.5988 5.10006 14.5305 5.18376 14.4239 5.31411L15.0044 5.78904ZM14.4697 6.53041C14.4716 6.51654 14.4846 6.46468 14.5778 6.33063C14.6688 6.19957 14.8045 6.03338 15.0044 5.78904L14.4239 5.31411C14.232 5.54865 14.0738 5.7416 13.9619 5.90261C13.8521 6.06063 13.7529 6.23376 13.7264 6.43043L14.4697 6.53041ZM14.614 6.87855C14.5068 6.79683 14.4518 6.66393 14.4697 6.53041L13.7264 6.43043C13.6726 6.831 13.8377 7.22969 14.159 7.47484L14.614 6.87855ZM15.5162 7.02475C15.202 6.99334 14.9887 6.97171 14.8316 6.94345C14.6709 6.91454 14.6251 6.88703 14.614 6.87855L14.159 7.47484C14.3168 7.59518 14.5094 7.64753 14.6987 7.68158C14.8917 7.7163 15.14 7.7409 15.4416 7.77105L15.5162 7.02475ZM16.2657 7.1789C16.1538 7.12117 16.0389 7.09234 15.9228 7.07285C15.8104 7.05398 15.6739 7.04052 15.5162 7.02475L15.4416 7.77105C15.6091 7.78778 15.7166 7.79873 15.7986 7.81253C15.8769 7.82565 15.9068 7.83773 15.9219 7.84545L16.2657 7.1789ZM16.7962 7.76505C16.6961 7.51193 16.5076 7.30369 16.2657 7.1789L15.9219 7.84545C16.0025 7.88708 16.0654 7.95645 16.0988 8.04083L16.7962 7.76505ZM16.875 8.52615C16.875 8.36775 16.8752 8.23058 16.8676 8.1168C16.8598 7.99935 16.8425 7.8822 16.7962 7.76505L16.0988 8.04083C16.105 8.05658 16.114 8.08763 16.1193 8.16683C16.1248 8.24978 16.125 8.35778 16.125 8.52615H16.875ZM16.875 9.47393V8.52615H16.125V9.47393H16.875ZM16.7963 10.2348C16.8425 10.1177 16.8598 10.0006 16.8676 9.88313C16.8752 9.7695 16.875 9.63233 16.875 9.47393H16.125C16.125 9.6423 16.1248 9.75023 16.1193 9.83318C16.114 9.91238 16.105 9.94335 16.0988 9.9591L16.7963 10.2348ZM16.2656 10.8212C16.5076 10.6964 16.6961 10.488 16.7963 10.2348L16.0988 9.9591C16.0654 10.0436 16.0025 10.1129 15.9219 10.1546L16.2656 10.8212ZM15.5163 10.9753C15.674 10.9595 15.8104 10.946 15.9228 10.9271C16.0388 10.9077 16.1537 10.8788 16.2656 10.8212L15.9219 10.1546C15.9068 10.1624 15.8769 10.1744 15.7986 10.1875C15.7166 10.2013 15.6092 10.2122 15.4417 10.229L15.5163 10.9753ZM14.6143 11.1214C14.6255 11.1129 14.6713 11.0854 14.8319 11.0565C14.9889 11.0282 15.2023 11.0066 15.5163 10.9753L15.4417 10.229C15.1402 10.2591 14.892 10.2836 14.699 10.3184C14.5097 10.3524 14.3173 10.4047 14.1595 10.525L14.6143 11.1214ZM14.47 11.4697C14.4521 11.3361 14.5071 11.2031 14.6143 11.1214L14.1595 10.525C13.838 10.7702 13.6728 11.1691 13.7267 11.5698L14.47 11.4697ZM15.0045 12.2108C14.8046 11.9665 14.6691 11.8004 14.578 11.6693C14.4849 11.5354 14.4719 11.4835 14.47 11.4697L13.7267 11.5698C13.7533 11.7664 13.8523 11.9394 13.9621 12.0974C14.074 12.2583 14.2322 12.4512 14.424 12.6857L15.0045 12.2108ZM15.4253 12.8495C15.3869 12.7295 15.3261 12.6279 15.2578 12.5321C15.1918 12.4394 15.1048 12.3333 15.0045 12.2108L14.424 12.6857C14.5306 12.8159 14.5988 12.8996 14.647 12.9673C14.6931 13.0319 14.7057 13.0616 14.7109 13.0778L15.4253 12.8495ZM15.3859 13.6394C15.4942 13.3895 15.5082 13.1088 15.4253 12.8495L14.7109 13.0778C14.7386 13.1642 14.7338 13.2577 14.6978 13.3411L15.3859 13.6394ZM14.9036 14.233C15.0156 14.121 15.1127 14.0242 15.1877 13.9384C15.2652 13.8499 15.3358 13.7549 15.3859 13.6394L14.6978 13.3411C14.691 13.3566 14.6755 13.3849 14.6232 13.4446C14.5685 13.5071 14.4923 13.5836 14.3733 13.7027L14.9036 14.233ZM14.2334 14.9032L14.9036 14.233L14.3733 13.7027L13.7031 14.3728L14.2334 14.9032ZM13.6396 15.3856C13.7551 15.3355 13.8502 15.2649 13.9387 15.1873C14.0245 15.1123 14.1214 15.0152 14.2334 14.9032L13.7031 14.3728C13.584 14.4919 13.5075 14.5681 13.445 14.6229C13.3852 14.6752 13.3569 14.6907 13.3414 14.6974L13.6396 15.3856ZM12.8499 15.425C13.1092 15.5078 13.3898 15.4939 13.6396 15.3856L13.3414 14.6974C13.2581 14.7335 13.1646 14.7382 13.0781 14.7106L12.8499 15.425ZM12.211 15.004C12.3336 15.1044 12.4397 15.1914 12.5324 15.2575C12.6284 15.3258 12.7299 15.3867 12.8499 15.425L13.0781 14.7106C13.062 14.7054 13.0323 14.6928 12.9677 14.6467C12.8999 14.5984 12.8163 14.5302 12.686 14.4235L12.211 15.004ZM11.4696 14.4694C11.4835 14.4713 11.5354 14.4843 11.6694 14.5774C11.8004 14.6685 11.9666 14.8042 12.211 15.004L12.686 14.4235C12.4514 14.2317 12.2585 14.0735 12.0974 13.9615C11.9394 13.8518 11.7663 13.7526 11.5697 13.7261L11.4696 14.4694ZM11.1215 14.6137C11.2032 14.5066 11.3361 14.4515 11.4696 14.4694L11.5697 13.7261C11.169 13.6723 10.7703 13.8374 10.5252 14.1588L11.1215 14.6137ZM10.9753 15.5161C11.0067 15.2019 11.0283 14.9885 11.0566 14.8313C11.0855 14.6706 11.113 14.6248 11.1215 14.6137L10.5252 14.1588C10.4048 14.3165 10.3525 14.5091 10.3184 14.6985C10.2837 14.8915 10.2592 15.1399 10.229 15.4415L10.9753 15.5161ZM10.8211 16.2658C10.8788 16.1539 10.9076 16.0389 10.9271 15.9228C10.946 15.8104 10.9595 15.6738 10.9753 15.5161L10.229 15.4415C10.2122 15.6091 10.2013 15.7165 10.1875 15.7986C10.1744 15.8769 10.1623 15.9069 10.1546 15.9219L10.8211 16.2658ZM10.235 16.7962C10.4881 16.696 10.6963 16.5077 10.8211 16.2658L10.1546 15.9219C10.1129 16.0025 10.0436 16.0654 9.95918 16.0988L10.235 16.7962ZM9.4737 16.875C9.63225 16.875 9.76943 16.8752 9.8832 16.8676C10.0007 16.8598 10.1179 16.8424 10.235 16.7962L9.95918 16.0988C9.94343 16.105 9.91245 16.114 9.83318 16.1193C9.75023 16.1248 9.64223 16.125 9.4737 16.125V16.875ZM8.52615 16.875H9.4737V16.125H8.52615V16.875ZM7.76505 16.7962C7.8822 16.8425 7.99935 16.8598 8.1168 16.8676C8.23058 16.8752 8.36775 16.875 8.52615 16.875V16.125C8.35778 16.125 8.24978 16.1248 8.16683 16.1193C8.08763 16.114 8.05658 16.105 8.04083 16.0988L7.76505 16.7962ZM7.1789 16.2657C7.30368 16.5076 7.51193 16.6961 7.76505 16.7962L8.04083 16.0988C7.95645 16.0654 7.88708 16.0025 7.84545 15.9219L7.1789 16.2657ZM7.02476 15.5162C7.04052 15.6739 7.05398 15.8104 7.07285 15.9228C7.09234 16.0389 7.12117 16.1538 7.1789 16.2657L7.84545 15.9219C7.83773 15.9068 7.82565 15.8769 7.81253 15.7986C7.79873 15.7166 7.78778 15.6091 7.77105 15.4416L7.02476 15.5162ZM6.87854 14.614C6.88703 14.6251 6.91454 14.6709 6.94345 14.8316C6.97171 14.9887 6.99334 15.2021 7.02476 15.5162L7.77105 15.4416C7.7409 15.14 7.7163 14.8917 7.68158 14.6987C7.64753 14.5094 7.59518 14.3168 7.47483 14.159L6.87854 14.614ZM6.53042 14.4697C6.66394 14.4518 6.79683 14.5069 6.87854 14.614L7.47483 14.159C7.22969 13.8377 6.83101 13.6726 6.43044 13.7264L6.53042 14.4697ZM5.78901 15.0044C6.03335 14.8045 6.19957 14.6688 6.33063 14.5778C6.46468 14.4846 6.51654 14.4716 6.53042 14.4697L6.43044 13.7264C6.23378 13.7529 6.06064 13.8521 5.90261 13.9619C5.7416 14.0738 5.54864 14.232 5.3141 14.4239L5.78901 15.0044ZM5.15005 15.4253C5.27003 15.387 5.37164 15.3262 5.46751 15.2578C5.56033 15.1918 5.66637 15.1047 5.78901 15.0044L5.3141 14.4239C5.18375 14.5306 5.10002 14.5988 5.03232 14.647C4.96766 14.6931 4.93796 14.7058 4.92183 14.7109L5.15005 15.4253ZM4.36046 15.386C4.61022 15.4942 4.89075 15.5082 5.15005 15.4253L4.92183 14.7109C4.83539 14.7386 4.74188 14.7338 4.65863 14.6978L4.36046 15.386ZM3.76654 14.9035C3.8786 15.0155 3.97545 15.1127 4.06123 15.1877C4.14983 15.2652 4.24489 15.3359 4.36046 15.386L4.65863 14.6978C4.64309 14.6911 4.6148 14.6755 4.55504 14.6233C4.49247 14.5685 4.41597 14.4922 4.29687 14.3731L3.76654 14.9035ZM3.09646 14.2334L3.76654 14.9035L4.29687 14.3731L3.62679 13.7031L3.09646 14.2334ZM2.61401 13.6395C2.66409 13.7551 2.73474 13.8502 2.81225 13.9387C2.88728 14.0245 2.98442 14.1214 3.09646 14.2334L3.62679 13.7031C3.5077 13.584 3.43147 13.5075 3.37674 13.445C3.32447 13.3852 3.30893 13.3569 3.30219 13.3414L2.61401 13.6395ZM2.57463 12.8499C2.4918 13.1093 2.5058 13.3898 2.61401 13.6395L3.30219 13.3414C3.26612 13.2581 3.26146 13.1646 3.28907 13.0781L2.57463 12.8499ZM2.9956 12.211C2.89525 12.3336 2.80824 12.4397 2.74211 12.5324C2.6738 12.6284 2.61296 12.73 2.57463 12.8499L3.28907 13.0781C3.29422 13.062 3.30686 13.0323 3.35294 12.9677C3.40117 12.8999 3.46941 12.8162 3.57606 12.6859L2.9956 12.211ZM3.53021 11.4696C3.52834 11.4835 3.51537 11.5353 3.42221 11.6694C3.33113 11.8004 3.1955 11.9666 2.9956 12.211L3.57606 12.6859C3.76796 12.4514 3.92618 12.2584 4.03808 12.0974C4.14791 11.9394 4.24706 11.7662 4.27351 11.5696L3.53021 11.4696ZM3.386 11.1215C3.49312 11.2031 3.54816 11.336 3.53021 11.4696L4.27351 11.5696C4.3274 11.169 4.16225 10.7703 3.84089 10.5251L3.386 11.1215ZM2.48376 10.9753C2.79788 11.0066 3.0113 11.0283 3.16838 11.0566C3.32903 11.0855 3.37487 11.113 3.386 11.1215L3.84089 10.5251C3.68312 10.4048 3.4906 10.3525 3.30121 10.3184C3.10824 10.2837 2.85992 10.2591 2.55839 10.229L2.48376 10.9753ZM1.73432 10.8211C1.84625 10.8788 1.96112 10.9076 2.0772 10.9271C2.18959 10.946 2.32609 10.9595 2.48376 10.9753L2.55839 10.229C2.39081 10.2122 2.28337 10.2013 2.20139 10.1875C2.1231 10.1744 2.09316 10.1623 2.07811 10.1546L1.73432 10.8211ZM1.2038 10.2349C1.30389 10.4881 1.49238 10.6964 1.73432 10.8211L2.07811 10.1546C1.99746 10.1129 1.93463 10.0436 1.90127 9.95918L1.2038 10.2349ZM1.125 9.47385C1.125 9.63233 1.12481 9.76943 1.1324 9.8832C1.14025 10.0006 1.1575 10.1178 1.2038 10.2349L1.90127 9.95918C1.89504 9.94335 1.88603 9.91238 1.88073 9.83318C1.8752 9.75023 1.875 9.64223 1.875 9.47385H1.125ZM1.125 8.52623V9.47385H1.875V8.52623H1.125ZM1.20385 7.76498C1.15751 7.88213 1.14026 7.99935 1.1324 8.1168C1.12481 8.23058 1.125 8.36775 1.125 8.52623H1.875C1.875 8.35778 1.8752 8.24978 1.88074 8.16683C1.88603 8.08755 1.89505 8.05658 1.90128 8.04083L1.20385 7.76498ZM1.73422 7.17895C1.49237 7.30372 1.30393 7.51193 1.20385 7.76498L1.90128 8.04083C1.93464 7.95645 1.99745 7.88708 2.07807 7.84545L1.73422 7.17895ZM2.48385 7.02475C2.32614 7.04051 2.1896 7.05398 2.07718 7.07285C1.96107 7.09235 1.84617 7.12119 1.73422 7.17895L2.07807 7.84545C2.09313 7.83773 2.12307 7.82565 2.20139 7.81253C2.28339 7.79873 2.39086 7.78778 2.55848 7.77105L2.48385 7.02475ZM3.38633 6.87849C3.3752 6.88699 3.32936 6.9145 3.16865 6.94342C3.01154 6.9717 2.79805 6.99332 2.48385 7.02475L2.55848 7.77105C2.8601 7.74083 3.10848 7.7163 3.3015 7.68158C3.49094 7.64745 3.68351 7.5951 3.84131 7.47473L3.38633 6.87849ZM3.53049 6.53044C3.54843 6.66393 3.4934 6.79679 3.38633 6.87849L3.84131 7.47473C4.16253 7.2296 4.32762 6.83103 4.27381 6.43056L3.53049 6.53044ZM2.99573 5.78883C3.1957 6.03324 3.33137 6.19949 3.42248 6.3306C3.51567 6.46469 3.52863 6.51656 3.53049 6.53044L4.27381 6.43056C4.24738 6.23384 4.14821 6.06065 4.03836 5.90259C3.92643 5.74153 3.76815 5.54852 3.5762 5.3139L2.99573 5.78883ZM2.57462 5.14961C2.61295 5.26963 2.67381 5.37128 2.74214 5.46719C2.80829 5.56005 2.89534 5.66613 2.99573 5.78883L3.5762 5.3139C3.46949 5.18349 3.40123 5.09975 3.35297 5.03201C3.30689 4.96733 3.29424 4.93762 3.28909 4.92148L2.57462 5.14961ZM2.61399 4.36028C2.50584 4.60997 2.49185 4.89039 2.57462 5.14961L3.28909 4.92148C3.2615 4.83507 3.26616 4.7416 3.30221 4.65837L2.61399 4.36028ZM3.09659 3.76615C2.9845 3.87824 2.88733 3.97514 2.81227 4.06094C2.73474 4.14957 2.66407 4.24466 2.61399 4.36028L3.30221 4.65837C3.30894 4.64282 3.32448 4.61452 3.37677 4.55474C3.43152 4.49215 3.50778 4.41562 3.62692 4.29648L3.09659 3.76615ZM3.76658 3.09617L3.09659 3.76615L3.62692 4.29648L4.29691 3.62649L3.76658 3.09617ZM4.36049 2.61371C4.24492 2.66378 4.14986 2.73443 4.06127 2.81194C3.97549 2.88698 3.87863 2.98412 3.76658 3.09617L4.29691 3.62649C4.416 3.5074 4.49251 3.43117 4.55507 3.37643C4.61483 3.32416 4.64312 3.30862 4.65866 3.30188L4.36049 2.61371ZM5.15008 2.57432C4.89079 2.49149 4.61025 2.50549 4.36049 2.61371L4.65866 3.30188C4.74192 3.26582 4.83543 3.26115 4.92186 3.28876L5.15008 2.57432ZM5.78912 2.99534C5.66645 2.89498 5.5604 2.80796 5.46756 2.74181C5.37169 2.6735 5.27006 2.61266 5.15008 2.57432L4.92186 3.28876C4.93799 3.29391 4.96769 3.30656 5.03237 3.35264C5.10008 3.40088 5.18381 3.46913 5.31419 3.57581L5.78912 2.99534ZM6.53039 3.52991C6.51653 3.52804 6.46468 3.51507 6.33064 3.42191C6.1996 3.33083 6.03341 3.19522 5.78912 2.99534L5.31419 3.57581C5.5487 3.76768 5.74163 3.92588 5.9026 4.03777C6.06059 4.14758 6.23367 4.24672 6.43028 4.27319L6.53039 3.52991ZM6.87862 3.38567C6.79689 3.49283 6.66395 3.54789 6.53039 3.52991L6.43028 4.27319C6.83098 4.32716 7.22981 4.16195 7.47499 3.84047L6.87862 3.38567ZM7.02476 2.48366C6.99336 2.7977 6.97175 3.01106 6.94349 3.16809C6.91459 3.32871 6.8871 3.37454 6.87862 3.38567L7.47499 3.84047C7.59525 3.68273 7.6476 3.49025 7.68165 3.30091C7.71638 3.10799 7.7409 2.85974 7.77105 2.5583L7.02476 2.48366ZM7.17884 1.73441C7.12114 1.84631 7.09232 1.96117 7.07285 2.07722C7.05398 2.18957 7.04053 2.32604 7.02476 2.48366L7.77105 2.5583C7.78778 2.39076 7.79873 2.28335 7.81253 2.20139C7.82565 2.12312 7.83765 2.09319 7.84545 2.07814L7.17884 1.73441ZM7.7652 1.20376C7.512 1.30385 7.30364 1.4924 7.17884 1.73441L7.84545 2.07814C7.88708 1.99747 7.95645 1.93462 8.0409 1.90125L7.7652 1.20376ZM8.52608 1.125C8.36768 1.125 8.2305 1.12481 8.11688 1.1324C7.99943 1.14023 7.88228 1.15748 7.7652 1.20376L8.0409 1.90125C8.05665 1.89503 8.08763 1.88602 8.16683 1.88073C8.24978 1.8752 8.3577 1.875 8.52608 1.875V1.125ZM9.47385 1.125H8.52608V1.875H9.47385V1.125ZM10.2349 1.2038C10.1178 1.1575 10.0006 1.14025 9.8832 1.1324C9.76943 1.12481 9.63233 1.125 9.47385 1.125V1.875C9.64223 1.875 9.75023 1.8752 9.83318 1.88073C9.91238 1.88603 9.94335 1.89504 9.95918 1.90127L10.2349 1.2038ZM10.8211 1.73432C10.6964 1.49238 10.4881 1.30389 10.2349 1.2038L9.95918 1.90127C10.0436 1.93463 10.1129 1.99746 10.1546 2.0781L10.8211 1.73432ZM11.625 9C11.625 10.4498 10.4498 11.625 9 11.625V12.375C10.864 12.375 12.375 10.864 12.375 9H11.625ZM9 6.375C10.4498 6.375 11.625 7.55025 11.625 9H12.375C12.375 7.13604 10.864 5.625 9 5.625V6.375ZM6.375 9C6.375 7.55025 7.55025 6.375 9 6.375V5.625C7.13604 5.625 5.625 7.13604 5.625 9H6.375ZM9 11.625C7.55025 11.625 6.375 10.4498 6.375 9H5.625C5.625 10.864 7.13604 12.375 9 12.375V11.625Z" fill="#2D2D2D"/>
</svg>
