<svg width="13" height="15" viewBox="0 0 13 15" fill="none" xmlns="http://www.w3.org/2000/svg">
<path d="M3.93165 11.9062C3.93165 11.9062 3.70665 11.6925 3.6954 11.1412C3.6954 11.1412 3.48165 8.09997 4.58415 5.16372C4.58415 5.16372 4.7379 4.73622 5.1129 4.73622C5.4879 4.73622 7.73415 4.73622 7.73415 4.73622C7.73415 4.73622 8.1729 4.65372 8.38665 5.25747C8.6004 5.86122 9.0279 6.95247 9.1629 8.67372C9.29415 10.3987 9.40665 11.4375 8.9904 11.9587C8.9904 11.955 6.5229 11.1712 3.93165 11.9062Z" fill="#2D2D2D"/>
<path d="M1.11516 11.4787C1.11516 11.4787 1.58391 13.0387 2.94141 12.7725C4.29891 12.5062 5.95266 11.5087 9.54141 12.7125C9.54141 12.7125 11.1652 13.305 11.8177 11.4787C11.8177 11.4787 12.6952 10.725 12.9502 11.6437C13.2052 12.5625 12.5189 14.7975 11.0864 14.9025H1.76766C1.76766 14.9025 0.503914 14.6512 0.143914 13.0462C0.143914 13.0462 -0.0698359 12.1837 0.0201641 11.5612C0.0239141 11.5575 0.338914 10.7925 1.11516 11.4787Z" fill="#2D2D2D"/>
<path d="M10.0815 3.89619C9.58274 2.31744 8.55149 2.41869 8.55149 2.41869H7.87274V1.93869H8.52149C8.52149 1.93869 9.04274 2.00994 8.73524 1.14369C8.42774 0.277442 8.25524 0.101192 7.75649 0.101192H5.12399C5.12399 0.101192 4.58399 0.0224419 4.34024 0.836192C4.09274 1.65369 4.10399 1.89369 4.40024 1.93869H5.09024V2.41119H4.55399C3.94274 2.39244 3.56399 2.67744 3.39149 2.91369C3.21524 3.14994 2.97149 3.76119 2.97149 3.76119C2.07149 5.67744 1.94774 8.47119 1.85774 9.66744C1.76774 10.8637 1.88024 11.4224 2.45024 11.8724C3.02399 12.3224 3.48149 12.0374 3.48149 12.0374C3.03524 11.3024 3.29774 10.0049 3.38024 8.32119C3.46274 6.63744 4.03274 5.50494 4.22774 4.86369C4.42274 4.22244 5.13524 4.21119 5.13524 4.21119C5.13524 4.21119 7.38149 4.18869 7.92149 4.22994C8.46149 4.27119 8.71649 4.79244 8.71649 4.79244C9.59399 6.64869 9.66524 9.32244 9.74774 10.5262C9.83024 11.7299 9.52274 12.0374 9.52274 12.0374C10.959 12.0787 11.0827 10.9762 11.0827 10.9762C11.1315 6.24369 10.5802 5.47869 10.0815 3.89619ZM5.55149 2.41119V1.93869H7.40774V2.41494L5.55149 2.41119Z" fill="#2D2D2D"/>
</svg>
